<svg xmlns="http://www.w3.org/2000/svg" viewBox="0 0 1536 1024" width="108" height="81">
  <defs>
    <radialGradient id="maroonSheen" cx="42%" cy="28%" r="58%">
      <stop offset="0%" stop-color="#b03048" stop-opacity="0.6"/>
      <stop offset="100%" stop-color="#3a0810" stop-opacity="0"/>
    </radialGradient>
    <clipPath id="activityCircleClip">
      <circle cx="768" cy="390" r="185"/>
    </clipPath>
    <filter id="pinShadow" x="-15%" y="-10%" width="130%" height="130%">
      <feDropShadow dx="0" dy="18" stdDeviation="22" flood-color="#000000" flood-opacity="0.5"/>
    </filter>
  </defs>

  <path
    filter="url(#pinShadow)"
    d="M768,820 C768,820 430,620 430,390 A338,338 0 1,1 1106,390 C1106,620 768,820 768,820 Z"
    fill="#7a1522"
  />
  <path
    d="M768,820 C768,820 430,620 430,390 A338,338 0 1,1 1106,390 C1106,620 768,820 768,820 Z"
    fill="url(#maroonSheen)"
  />
  <path
    d="M768,775 C768,775 462,585 462,390 A306,306 0 1,1 1074,390 C1074,585 768,775 768,775 Z"
    fill="#daa520"
  />
  <path
    d="M768,728 C768,728 494,550 494,390 A274,274 0 1,1 1042,390 C1042,550 768,728 768,728 Z"
    fill="#7a1522"
  />
  <path
    d="M768,695 C768,695 516,524 516,390 A252,252 0 1,1 1020,390 C1020,524 768,695 768,695 Z"
    fill="#daa520"
  />

  <circle cx="768" cy="390" r="215" fill="#111111"/>

  <g clip-path="url(#activityCircleClip)">
    <path
      d="M604,568 C640,518 706,490 778,490 C860,490 926,526 956,585"
      fill="none"
      stroke="#ffffff"
      stroke-width="34"
      stroke-linecap="round"
      opacity="0.92"
    />
    <path
      d="M938,314 C980,346 1003,399 996,462 C986,538 929,598 850,620"
      fill="none"
      stroke="#daa520"
      stroke-width="28"
      stroke-linecap="round"
      opacity="0.96"
    />
    <path
      d="M602,466 C628,418 686,384 752,382"
      fill="none"
      stroke="#daa520"
      stroke-width="24"
      stroke-linecap="round"
      opacity="0.96"
    />
    <circle cx="768" cy="284" r="40" fill="#f4d46a"/>
    <path
      d="M768,338 L768,486"
      fill="none"
      stroke="#ffffff"
      stroke-width="38"
      stroke-linecap="round"
    />
    <path
      d="M768,380 L666,462"
      fill="none"
      stroke="#ffffff"
      stroke-width="34"
      stroke-linecap="round"
    />
    <path
      d="M768,378 L878,448"
      fill="none"
      stroke="#ffffff"
      stroke-width="34"
      stroke-linecap="round"
    />
    <path
      d="M768,486 L686,606"
      fill="none"
      stroke="#ffffff"
      stroke-width="34"
      stroke-linecap="round"
    />
    <path
      d="M768,486 L856,592"
      fill="none"
      stroke="#ffffff"
      stroke-width="34"
      stroke-linecap="round"
    />
  </g>

  <circle cx="768" cy="390" r="215" fill="none" stroke="#000000" stroke-width="16" opacity="0.3"/>
</svg>
